<svg xmlns="http://www.w3.org/2000/svg" xmlns:xlink="http://www.w3.org/1999/xlink" viewBox="0 0 600 113.48">
  <defs>
    <style>.a{fill:#424242;}.b{fill:url(#a);}</style>
    <linearGradient id="a" x1="61.96" y1="113.48" x2="61.96" gradientUnits="userSpaceOnUse">
      <stop offset="0" stop-color="#ff6d00"/>
      <stop offset="1" stop-color="#ffb300"/>
    </linearGradient>
  </defs>
  <path class="a"
        d="M207.8,8.33a4.94,4.94,0,0,0-4.94,4.94V85A6.85,6.85,0,0,1,199,91.16l-9.25,4.63a4.94,4.94,0,1,0,4.41,8.84l9.26-4.63a16.71,16.71,0,0,0,9.28-15V13.27A4.94,4.94,0,0,0,207.8,8.33Z"/>
  <path class="a"
        d="M177.1,20.27a5,5,0,0,0-5.77,3.95L159.48,87.44a4.94,4.94,0,0,0,3.94,5.77,4.84,4.84,0,0,0,.92.08,4.94,4.94,0,0,0,4.85-4L181,26A4.94,4.94,0,0,0,177.1,20.27Z"/>
  <path class="a"
        d="M244.27,24.22A4.94,4.94,0,1,0,234.56,26l11.85,63.22a4.94,4.94,0,0,0,4.85,4,4.77,4.77,0,0,0,.92-.08,4.93,4.93,0,0,0,3.94-5.77Z"/>
  <path class="a"
        d="M306.59,30.07a4.94,4.94,0,0,0,0-9.88h-6.91V13.27a4.94,4.94,0,0,0-9.88,0v6.92H278.93a4.94,4.94,0,1,0,0,9.88H289.8v70.14a4.94,4.94,0,0,0,9.88,0V57.45l3.49,3.35A4.94,4.94,0,1,0,310,53.67l-10.33-9.9V30.07Z"/>
  <path class="a"
        d="M362,24.14l7.38-7.37a4.94,4.94,0,0,0-3.49-8.44H318.45a4.94,4.94,0,0,0-3.5,8.44l7.38,7.37h-3.88a4.94,4.94,0,1,0,0,9.88h3.88L315,41.39a4.94,4.94,0,1,0,7,7L336.3,34h8.82V40h-6.91a4.94,4.94,0,0,0,0,9.88h7.9A8.9,8.9,0,0,0,355,40.94V34h5.93V44.89a4.94,4.94,0,0,0,9.88,0V33A8.91,8.91,0,0,0,362,24.14Zm-8-5.93L348,24.14H336.3l-5.93-5.93Z"/>
  <path class="a"
        d="M350.06,55.75H334.25A20.77,20.77,0,0,0,313.51,76.5v23.71a4.94,4.94,0,1,0,9.88,0V76.5a10.63,10.63,0,0,1,.53-3.35l5.57,5.57a8.26,8.26,0,0,0-.18,1.73V96.26a8.9,8.9,0,0,0,8.9,8.89h7.9A8.9,8.9,0,0,0,355,96.26V80.45a9,9,0,0,0-.17-1.73l5.57-5.57a10.93,10.93,0,0,1,.53,3.35v23.71a4.94,4.94,0,1,0,9.88,0V76.5A20.78,20.78,0,0,0,350.06,55.75Zm0,9.88a10.93,10.93,0,0,1,3.35.53l-5.57,5.57a9,9,0,0,0-1.73-.17h-7.9a9,9,0,0,0-1.74.17l-5.57-5.57a10.93,10.93,0,0,1,3.35-.53Zm-4.94,29.64h-5.93V81.44h5.93Z"/>
  <path class="a"
        d="M278.93,36A4.94,4.94,0,0,0,274,40.94v59.27a4.94,4.94,0,1,0,9.88,0V40.94A4.94,4.94,0,0,0,278.93,36Z"/>
  <path class="a"
        d="M425.14,41.92a4.94,4.94,0,0,0,0-9.88h-6.91V19.12l7.52-.94a4.94,4.94,0,0,0-1.22-9.81l-31.61,4a4.94,4.94,0,0,0,.6,9.85c.21,0,.41,0,.62,0l14.21-1.78V32H393.53a4.94,4.94,0,1,0,0,9.88h14.82v58.29a4.94,4.94,0,1,0,9.88,0V64.37l3.49,3.35a4.94,4.94,0,0,0,6.84-7.14l-10.33-9.9V41.92Z"/>
  <path class="a"
        d="M397.89,47.87a4.93,4.93,0,0,0-5.33,4.51L388.61,99.8a4.93,4.93,0,0,0,4.51,5.33l.41,0a4.93,4.93,0,0,0,4.92-4.53L402.4,53.2A4.93,4.93,0,0,0,397.89,47.87Z"/>
  <path class="a"
        d="M479.58,69.17l-2.08.38V13.27a4.94,4.94,0,1,0-9.88,0v7.82L443.16,8.86a4.94,4.94,0,1,0-4.42,8.83l28.88,14.44V47.27L443.16,35a4.94,4.94,0,1,0-4.42,8.83l28.88,14.44v13l-31.51,5.73a4.94,4.94,0,0,0,.88,9.8,4.53,4.53,0,0,0,.89-.08l29.74-5.4v18.82a4.94,4.94,0,1,0,9.88,0V79.59l3.85-.7a4.94,4.94,0,0,0-1.77-9.72Z"/>
  <path class="a"
        d="M533.84,52.2l-5,2.13V30.07h6.92a4.94,4.94,0,1,0,0-9.88h-6.92V13.27a4.94,4.94,0,0,0-9.88,0v6.92H508.12a4.94,4.94,0,1,0,0,9.88H519v28.5l-12.81,5.49a4.94,4.94,0,1,0,3.89,9.08L519,69.31V85a6.85,6.85,0,0,1-3.82,6.18l-9.25,4.63a4.94,4.94,0,1,0,4.41,8.84l9.26-4.63a16.71,16.71,0,0,0,9.28-15V65.08l8.86-3.8a4.94,4.94,0,1,0-3.89-9.08Z"/>
  <path class="a"
        d="M597.8,96.1,580.26,84.4,589,78.57A24.64,24.64,0,0,0,600,58V44.89A4.94,4.94,0,0,0,595.06,40H576.29V30.07h18.77a4.94,4.94,0,1,0,0-9.88H576.29V13.27a4.94,4.94,0,1,0-9.88,0v6.92H547.64a4.94,4.94,0,1,0,0,9.88h18.77V40H547.64a4.94,4.94,0,1,0,0,9.88h42.48V58a14.78,14.78,0,0,1-6.6,12.33l-12.17,8.12-21-14a4.94,4.94,0,0,0-5.48,8.22L562.45,84.4,544.9,96.1a4.94,4.94,0,1,0,5.48,8.22l21-14,21,14a4.94,4.94,0,1,0,5.48-8.22Z"/>
  <path class="b"
        d="M104.57,6.53a23.85,23.85,0,0,0-33.7.91c-6.54,6.91-7.55,15.76-3.8,23L74.8,45.22a14.31,14.31,0,1,1-25.67,0l7.73-14.83h0c3.68-7.07,2.83-15.93-3.81-22.95a23.84,23.84,0,0,0-33.69-.91,62,62,0,1,0,85.21,0Z"/>
</svg>
