<svg xmlns="http://www.w3.org/2000/svg" xmlns:xlink="http://www.w3.org/1999/xlink" viewBox="0 0 644.97 100"><defs><style>.a{fill:url(#a);}.b{fill:#424242;}</style><linearGradient id="a" x1="54.6" y1="100" x2="54.6" gradientUnits="userSpaceOnUse"><stop offset="0" stop-color="#ff6d00"/><stop offset="1" stop-color="#ffb300"/></linearGradient></defs><path class="a" d="M92.14,5.75a21,21,0,0,0-29.69.81c-5.76,6.09-6.65,13.88-3.35,20.22l6.81,13.06A12.6,12.6,0,1,1,42,45.4a12.63,12.63,0,0,1,1.29-5.56L50.1,26.78h0c3.25-6.23,2.5-14-3.35-20.22a21,21,0,0,0-29.69-.81,54.6,54.6,0,1,0,75.08,0Z"/><path class="b" d="M163.39,27.07a7.67,7.67,0,0,1,6.6,3.78l2,3.61A7.65,7.65,0,0,0,185.36,27l-2.05-3.68-.06-.11a22.94,22.94,0,0,0-42.79,11.48,19.9,19.9,0,0,0,11.06,17.9l16.9,8.45A4.71,4.71,0,0,1,171,65.29a7.64,7.64,0,0,1-14.27,3.81l-.07-.11-2-3.4a7.65,7.65,0,0,0-13.1,7.89l2,3.35a22.93,22.93,0,0,0,42.75-11.54,19.9,19.9,0,0,0-11.06-17.9l-16.9-8.45a4.71,4.71,0,0,1-2.61-4.23A7.65,7.65,0,0,1,163.39,27.07Z"/><path class="b" d="M239.83,11.78a7.64,7.64,0,0,0-7.64,7.64V65.29a7.65,7.65,0,0,1-15.29,0V19.42a7.65,7.65,0,0,0-15.29,0V65.29a22.93,22.93,0,0,0,45.86,0V19.42A7.64,7.64,0,0,0,239.83,11.78Z"/><path class="b" d="M285.69,11.78a23,23,0,0,0-22.93,22.93V80.58a7.65,7.65,0,0,0,15.29,0V34.71a7.65,7.65,0,0,1,15.29,0V80.58a7.65,7.65,0,0,0,15.29,0V34.71A23,23,0,0,0,285.69,11.78Z"/><path class="b" d="M560.88,11.78A23,23,0,0,0,538,34.71V80.58a7.65,7.65,0,0,0,15.29,0V34.71a7.65,7.65,0,0,1,15.29,0V80.58a7.64,7.64,0,0,0,15.28,0V34.71A23,23,0,0,0,560.88,11.78Z"/><path class="b" d="M362.14,42.36h-7.65a7.64,7.64,0,1,0,0,15.28v7.65a7.65,7.65,0,0,1-15.29,0V34.71a7.65,7.65,0,0,1,14.27-3.82,7.65,7.65,0,0,0,13.24-7.65,22.93,22.93,0,0,0-42.79,11.47V65.29a22.93,22.93,0,1,0,45.86,0V50A7.64,7.64,0,0,0,362.14,42.36Z"/><path class="b" d="M469.15,11.78H453.87a7.64,7.64,0,0,0-7.65,7.64V80.58a7.65,7.65,0,0,0,15.29,0V57.64h7.64a7.66,7.66,0,0,1,7.65,7.65V80.58a7.65,7.65,0,0,0,15.29,0V65.29A22.84,22.84,0,0,0,486.23,50a22.92,22.92,0,0,0-17.08-38.22Zm-7.64,15.29h7.64a7.65,7.65,0,1,1,0,15.29h-7.64Z"/><path class="b" d="M515,11.78a7.65,7.65,0,0,0-7.65,7.64V80.58a7.65,7.65,0,0,0,15.29,0V19.42A7.64,7.64,0,0,0,515,11.78Z"/><path class="b" d="M423.29,42.36h-7.65a7.64,7.64,0,1,0,0,15.28h7.65a7.64,7.64,0,0,0,0-15.28Z"/><path class="b" d="M423.29,11.78H408a23,23,0,0,0-22.93,22.93V65.29A23,23,0,0,0,408,88.22h15.29a7.65,7.65,0,0,0,0-15.29H408a7.65,7.65,0,0,1-7.64-7.64V34.71A7.65,7.65,0,0,1,408,27.07h15.29a7.65,7.65,0,0,0,0-15.29Z"/><path class="b" d="M637.32,42.36h-7.64a7.64,7.64,0,1,0,0,15.28h7.64a7.64,7.64,0,1,0,0-15.28Z"/><path class="b" d="M637.32,72.93H622a7.65,7.65,0,0,1-7.65-7.64V34.71A7.65,7.65,0,0,1,622,27.07h15.28a7.65,7.65,0,1,0,0-15.29H622A23,23,0,0,0,599.1,34.71V65.29A23,23,0,0,0,622,88.22h15.28a7.65,7.65,0,1,0,0-15.29Z"/></svg>